<?xml version="1.0" encoding="UTF-8"?>
<svg id="Layer_1" data-name="Layer 1" xmlns="http://www.w3.org/2000/svg" viewBox="0 0 787.83 681.69">
  <defs>
    <style>
      .cls-1 {
        fill: #e9e2bc;
      }
    </style>
  </defs>
  <path class="cls-1" d="M544.56,0l-86.52,445.45h-119.92l33.13-170.57-143.19,163.18h-.55l-74.74-161.26-32.85,168.65H0L86.52,0h53.66l116.91,253.8L480.22,0h64.34Z"/>
  <path class="cls-1" d="M787.82,417.75c-.27,16.15-1.64,30.12-3.83,42.99-22.18,126.22-116.91,220.95-252.43,220.95s-214.65-97.47-194.12-232.17c22.18-145.93,142.37-231.9,273.24-228.34,63.52,2.46,112.53,35.04,139.36,70.09l-81.86,88.98c-18.62-26.83-42.98-50.1-82.68-50.1-56.13,0-114.99,46.82-128.41,119.37-13.96,75.02,31.49,122.11,90.62,122.11,55.03,0,89.8-43.81,96.65-66.53h-89.8l16.98-87.34h216.29-.01Z"/>
</svg>