<?xml version="1.0" encoding="UTF-8"?>
<svg id="Layer_1" data-name="Layer 1" xmlns="http://www.w3.org/2000/svg" viewBox="0 0 803.69 626.52">
  <defs>
    <style>
      .cls-1 {
        fill: #e9e2bc;
      }

      .cls-2 {
        fill: none;
        stroke: #e9e2bc;
        stroke-miterlimit: 10;
        stroke-width: 4px;
      }
    </style>
  </defs>
  <g>
    <path class="cls-1" d="M517.91,0l-66.83,344.08h-92.63l25.59-131.75-110.6,126.05h-.42l-57.73-124.56-25.37,130.27h-92.63L164.11,0h41.45l90.31,196.04L468.21,0h49.7Z"/>
    <path class="cls-1" d="M705.81,322.68c-.21,12.47-1.27,23.27-2.96,33.21-17.13,97.5-90.31,170.67-194.99,170.67s-165.8-75.29-149.94-179.34c17.13-112.72,109.97-179.13,211.06-176.38,49.06,1.9,86.92,27.07,107.65,54.14l-63.23,68.73c-14.38-20.72-33.2-38.7-63.86-38.7-43.36,0-88.82,36.17-99.19,92.21-10.78,57.95,24.32,94.32,70,94.32,42.51,0,69.36-33.84,74.66-51.39h-69.36l13.12-67.46h167.07,0Z"/>
  </g>
  <g>
    <path class="cls-1" d="M61.74,543.26l-6.94,56.29h-8.66l3.88-31.5-22.4,27.1h-.15l-15.38-25.75-3.73,30.16H0l6.87-56.29h.07l22.4,38.37,32.25-38.37h.15Z"/>
    <path class="cls-1" d="M80.55,567.97l-3.88,31.58h-8.36l3.88-31.58h8.36ZM74.28,553.71c.94-.9,2.14-1.34,3.58-1.34,1.24,0,2.33.35,3.25,1.05.92.7,1.38,1.72,1.38,3.06s-.49,2.48-1.46,3.4c-.97.92-2.18,1.38-3.62,1.38-1.19-.05-2.27-.42-3.21-1.12-.95-.7-1.42-1.72-1.42-3.06.05-1.34.55-2.46,1.49-3.36Z"/>
    <path class="cls-1" d="M109.66,599.66c-1.94.52-3.86.78-5.75.78-2.34,0-4.78-.49-7.32-1.46-2.54-.97-4.7-2.6-6.5-4.89-1.79-2.29-2.69-5.25-2.69-8.88,0-2.99.7-5.85,2.09-8.58,1.39-2.74,3.42-4.98,6.08-6.72,2.66-1.74,5.81-2.61,9.44-2.61,5.42,0,9.78,1.59,13.06,4.78l-4.78,5.15c-.9-.85-2-1.57-3.32-2.17-1.32-.6-2.8-.9-4.44-.9s-3.28.46-4.78,1.38c-1.49.92-2.69,2.18-3.58,3.77-.9,1.59-1.34,3.36-1.34,5.3,0,2.54.88,4.68,2.65,6.42,1.77,1.74,4.07,2.61,6.91,2.61,2.04,0,3.96-.57,5.75-1.72l3.58,5.52c-1.44.95-3.14,1.68-5.08,2.2Z"/>
    <path class="cls-1" d="M154.64,568.98c1.72,1.57,2.58,3.6,2.58,6.08l-.07,1.05-2.84,23.44h-8.36l2.46-20.53c.1-1.64-.22-2.92-.97-3.84-.75-.92-1.97-1.38-3.66-1.38-2.64,0-4.93,1.11-6.87,3.32-1.94,2.21-3.11,5.04-3.51,8.47l-1.72,13.96h-8.36l7.09-58.23h8.21l-3.81,31.65c1.44-1.94,3.28-3.48,5.52-4.63,2.24-1.14,4.75-1.72,7.54-1.72s5.04.78,6.76,2.35Z"/>
    <path class="cls-1" d="M202.98,567.97l-3.81,31.58h-8.36l.52-4.55c-1.29,1.34-3.02,2.56-5.19,3.66-2.16,1.09-4.72,1.62-7.65,1.57-2.29.05-4.47-.55-6.53-1.79-2.07-1.24-3.72-3.05-4.96-5.41-1.24-2.36-1.87-5.09-1.87-8.17s.73-5.96,2.2-8.77c1.47-2.81,3.55-5.1,6.23-6.87s5.77-2.65,9.26-2.65c5.27,0,9.03,1.94,11.27,5.82l1.19-4.4h7.69ZM193.12,580.14c-.35-2.04-1.33-3.67-2.95-4.89-1.62-1.22-3.57-1.83-5.86-1.83s-4.37.55-5.94,1.64c-1.57,1.1-2.72,2.45-3.47,4.07s-1.12,3.2-1.12,4.74c0,2.89.86,5.21,2.58,6.98,1.72,1.77,3.97,2.65,6.76,2.65,1.94,0,3.73-.57,5.38-1.72,1.64-1.14,2.91-2.74,3.81-4.78l.82-6.87Z"/>
    <path class="cls-1" d="M234.18,591.11l2.99,6.49c-1.59.85-3.29,1.51-5.08,1.98s-3.51.71-5.15.71c-5.18,0-9.29-1.39-12.35-4.18s-4.59-6.77-4.59-11.94c0-2.79.68-5.54,2.05-8.25,1.37-2.71,3.45-4.94,6.23-6.68,2.79-1.74,6.17-2.61,10.15-2.61,9.26,0,14.66,5.13,16.2,15.38l-25.01,6.64c.8,1.54,1.94,2.69,3.43,3.43,1.49.75,3.08,1.12,4.78,1.12,2.04,0,4.15-.7,6.35-2.09ZM220.97,576.15c-1.74,1.97-2.61,4.32-2.61,7.05v.52l17.24-4.7c-.55-1.79-1.47-3.21-2.76-4.25-1.29-1.05-2.84-1.57-4.63-1.57-3.09,0-5.5.98-7.24,2.95Z"/>
    <path class="cls-1" d="M266.13,541.32l-7.09,58.23h-8.36l7.09-58.23h8.36Z"/>
    <path class="cls-1" d="M331.3,598.99c-3.43.92-6.67,1.38-9.71,1.38-3.48,0-7.32-.8-11.5-2.39-4.18-1.59-7.81-4.27-10.9-8.03-3.09-3.76-4.63-8.67-4.63-14.74,0-4.68,1.04-9.33,3.14-13.96,2.09-4.63,5.35-8.5,9.78-11.61,4.43-3.11,9.93-4.67,16.5-4.67,3.18,0,6.37.42,9.56,1.27,3.18.85,6.02,2.09,8.51,3.73l-3.88,7.84c-1.89-1.24-4.08-2.24-6.57-2.99-2.49-.75-4.88-1.12-7.17-1.12-4.93,0-8.96,1.1-12.09,3.29-3.14,2.19-5.38,4.89-6.72,8.1s-2.02,6.48-2.02,9.82c0,3.98,1.09,7.24,3.28,9.78,2.19,2.54,4.79,4.36,7.8,5.45,3.01,1.1,5.83,1.64,8.47,1.64,3.09,0,5.55-.45,7.39-1.34l1.12-9.71h-10.23l1.04-8.29h19.04l-2.76,23.37c-1.54,1.19-4.03,2.25-7.47,3.17Z"/>
    <path class="cls-1" d="M373.48,591.11l2.99,6.49c-1.59.85-3.29,1.51-5.08,1.98s-3.51.71-5.15.71c-5.18,0-9.29-1.39-12.35-4.18s-4.59-6.77-4.59-11.94c0-2.79.68-5.54,2.05-8.25,1.37-2.71,3.45-4.94,6.23-6.68,2.79-1.74,6.17-2.61,10.15-2.61,9.26,0,14.66,5.13,16.2,15.38l-25.01,6.64c.8,1.54,1.94,2.69,3.43,3.43,1.49.75,3.08,1.12,4.78,1.12,2.04,0,4.15-.7,6.35-2.09ZM360.27,576.15c-1.74,1.97-2.61,4.32-2.61,7.05v.52l17.24-4.7c-.55-1.79-1.47-3.21-2.76-4.25-1.29-1.05-2.84-1.57-4.63-1.57-3.09,0-5.5.98-7.24,2.95Z"/>
    <path class="cls-1" d="M421.29,568.94c1.72,1.54,2.58,3.56,2.58,6.05,0,.5-.03.87-.07,1.12l-2.84,23.44h-8.36l2.54-20.46c.1-1.69-.25-3-1.04-3.92-.8-.92-2.09-1.38-3.88-1.38-2.59,0-4.83,1.11-6.72,3.32-1.89,2.21-3.04,5.04-3.43,8.47l-1.72,13.96h-8.36l3.81-31.58h7.54l.07,5.08c1.39-1.99,3.22-3.56,5.49-4.7,2.26-1.14,4.79-1.72,7.58-1.72s5.11.77,6.83,2.31Z"/>
    <path class="cls-1" d="M444.7,567.97l-3.88,31.58h-8.36l3.88-31.58h8.36ZM438.43,553.71c.95-.9,2.14-1.34,3.58-1.34,1.24,0,2.33.35,3.25,1.05.92.7,1.38,1.72,1.38,3.06s-.49,2.48-1.46,3.4c-.97.92-2.18,1.38-3.62,1.38-1.19-.05-2.27-.42-3.21-1.12-.95-.7-1.42-1.72-1.42-3.06.05-1.34.55-2.46,1.49-3.36Z"/>
    <path class="cls-1" d="M456.01,598.95c-2.41-.85-4.44-2.36-6.08-4.55l4.11-4.48c1.49,1.79,2.95,2.97,4.37,3.55,1.42.57,2.85.86,4.29.86,1.54,0,2.67-.37,3.4-1.12.72-.75,1.08-1.57,1.08-2.46,0-.85-.3-1.54-.9-2.09-.6-.55-1.23-.96-1.9-1.23-.67-.27-1.93-.76-3.77-1.46-4.63-1.84-6.94-4.78-6.94-8.81,0-1.49.37-3.04,1.12-4.63.75-1.59,2-2.95,3.77-4.07s4.04-1.68,6.83-1.68c4.98,0,8.96,1.37,11.94,4.11l-3.81,4.85c-1-1.09-2.09-1.9-3.28-2.43s-2.42-.78-3.66-.78c-1.44,0-2.54.34-3.28,1.01-.75.67-1.12,1.48-1.12,2.43.05,1,.5,1.78,1.34,2.35.85.57,2.12,1.18,3.81,1.83.35.1.87.3,1.57.6,2.19,1,3.87,2.14,5.04,3.43,1.17,1.29,1.75,2.99,1.75,5.08,0,1.84-.47,3.6-1.42,5.26-.95,1.67-2.39,3.04-4.33,4.11-1.94,1.07-4.36,1.61-7.24,1.61-2.04,0-4.27-.42-6.68-1.27Z"/>
    <path class="cls-1" d="M492.29,598.62c-2.61-1.17-4.77-2.94-6.46-5.3-1.69-2.36-2.54-5.21-2.54-8.55,0-2.89.63-5.71,1.9-8.47,1.27-2.76,3.29-5.06,6.05-6.91,2.76-1.84,6.26-2.76,10.49-2.76,2.94,0,5.7.62,8.29,1.87,2.59,1.25,4.68,3.05,6.27,5.41,1.59,2.37,2.39,5.14,2.39,8.32,0,2.59-.59,5.28-1.75,8.06-1.17,2.79-3.12,5.16-5.86,7.13-2.74,1.97-6.32,2.95-10.75,2.95-2.74,0-5.41-.59-8.03-1.75ZM505.99,591.75c1.44-1.12,2.5-2.5,3.17-4.14s1.01-3.31,1.01-5c0-2.19-.46-3.96-1.38-5.3s-2.05-2.31-3.4-2.91c-1.34-.6-2.66-.9-3.96-.9-2.19,0-4.01.56-5.45,1.68-1.44,1.12-2.51,2.51-3.21,4.18-.7,1.67-1.04,3.35-1.04,5.04,0,3.04.9,5.3,2.69,6.79,1.79,1.49,3.83,2.24,6.12,2.24s4.01-.56,5.45-1.68Z"/>
    <path class="cls-1" d="M542.27,554.09l-1.64,13.88h8.21l-.75,6.57h-8.29l-3.06,25.01h-8.36l3.06-25.01h-5.45l.82-6.57h5.45l1.64-13.88h8.36Z"/>
    <path class="cls-1" d="M583.99,545.2h17.25c5.82,0,10.56,1.09,14.22,3.28,3.66,2.19,6.31,5.09,7.95,8.7,1.64,3.61,2.46,7.6,2.46,11.98,0,.75-.05,1.87-.15,3.36-.45,5.48-2.03,10.25-4.74,14.33s-6.2,7.22-10.45,9.41c-4.25,2.19-8.82,3.29-13.7,3.29h-19.48l6.64-54.35ZM596.54,591.19c5.72,0,10.44-1.67,14.15-5,3.71-3.33,5.79-8.09,6.23-14.26.1-1.19.15-2.04.15-2.54,0-3.68-.8-6.72-2.39-9.11-1.59-2.39-3.62-4.12-6.08-5.19-2.46-1.07-5.06-1.61-7.8-1.61h-9.11l-4.63,37.7h9.48Z"/>
    <path class="cls-1" d="M655.89,591.11l2.99,6.49c-1.59.85-3.28,1.51-5.08,1.98s-3.51.71-5.15.71c-5.18,0-9.29-1.39-12.35-4.18s-4.59-6.77-4.59-11.94c0-2.79.68-5.54,2.05-8.25,1.37-2.71,3.45-4.94,6.23-6.68,2.79-1.74,6.17-2.61,10.15-2.61,9.26,0,14.66,5.13,16.2,15.38l-25.01,6.64c.8,1.54,1.94,2.69,3.43,3.43,1.49.75,3.09,1.12,4.78,1.12,2.04,0,4.15-.7,6.35-2.09ZM642.67,576.15c-1.74,1.97-2.61,4.32-2.61,7.05v.52l17.25-4.7c-.55-1.79-1.47-3.21-2.76-4.25-1.29-1.05-2.84-1.57-4.63-1.57-3.09,0-5.5.98-7.24,2.95Z"/>
    <path class="cls-1" d="M676,598.95c-2.42-.85-4.44-2.36-6.08-4.55l4.11-4.48c1.49,1.79,2.95,2.97,4.37,3.55,1.42.57,2.85.86,4.29.86,1.54,0,2.67-.37,3.4-1.12.72-.75,1.08-1.57,1.08-2.46,0-.85-.3-1.54-.9-2.09-.6-.55-1.23-.96-1.9-1.23-.67-.27-1.93-.76-3.77-1.46-4.63-1.84-6.94-4.78-6.94-8.81,0-1.49.37-3.04,1.12-4.63.75-1.59,2-2.95,3.77-4.07,1.77-1.12,4.04-1.68,6.83-1.68,4.98,0,8.96,1.37,11.94,4.11l-3.81,4.85c-1-1.09-2.09-1.9-3.29-2.43s-2.41-.78-3.66-.78c-1.44,0-2.54.34-3.28,1.01-.75.67-1.12,1.48-1.12,2.43.05,1,.5,1.78,1.34,2.35.85.57,2.12,1.18,3.81,1.83.35.1.87.3,1.57.6,2.19,1,3.87,2.14,5.04,3.43,1.17,1.29,1.75,2.99,1.75,5.08,0,1.84-.47,3.6-1.42,5.26-.95,1.67-2.39,3.04-4.33,4.11-1.94,1.07-4.36,1.61-7.24,1.61-2.04,0-4.27-.42-6.68-1.27Z"/>
    <path class="cls-1" d="M716.2,567.97l-3.88,31.58h-8.36l3.88-31.58h8.36ZM709.93,553.71c.95-.9,2.14-1.34,3.58-1.34,1.24,0,2.33.35,3.25,1.05.92.7,1.38,1.72,1.38,3.06s-.49,2.48-1.46,3.4c-.97.92-2.18,1.38-3.62,1.38-1.19-.05-2.27-.42-3.21-1.12-.95-.7-1.42-1.72-1.42-3.06.05-1.34.55-2.46,1.49-3.36Z"/>
    <path class="cls-1" d="M762.11,567.97l-4.18,33.22c-.5,4.33-2.46,7.76-5.9,10.3-3.43,2.54-7.69,3.81-12.76,3.81-3.83,0-6.94-.56-9.33-1.68-2.39-1.12-4.68-2.73-6.87-4.82l5.67-5.67c1.54,1.59,3.2,2.8,4.96,3.62s3.87,1.23,6.31,1.23c2.69,0,4.91-.73,6.68-2.2,1.77-1.47,2.8-3.47,3.1-6.01l.6-5.08c-1.19,1.74-2.8,3.12-4.82,4.14s-4.34,1.53-6.98,1.53c-2.94,0-5.58-.66-7.91-1.98-2.34-1.32-4.18-3.21-5.52-5.67-1.34-2.46-2.02-5.36-2.02-8.7,0-2.49.68-5.09,2.05-7.8,1.37-2.71,3.43-5,6.2-6.87,2.76-1.87,6.08-2.8,9.97-2.8,2.79,0,5.23.46,7.32,1.38,2.09.92,3.61,2.18,4.55,3.77l1.19-3.73h7.69ZM752.18,580.14c-.45-2.04-1.52-3.67-3.21-4.89-1.69-1.22-3.73-1.83-6.12-1.83-2.54,0-4.64.56-6.31,1.68-1.67,1.12-2.89,2.5-3.66,4.14-.77,1.64-1.16,3.24-1.16,4.78,0,2.89.88,5.19,2.65,6.91s4.14,2.58,7.13,2.58c2.04,0,3.96-.58,5.75-1.75,1.79-1.17,3.16-2.75,4.11-4.74l.82-6.87Z"/>
    <path class="cls-1" d="M801.12,568.94c1.72,1.54,2.58,3.56,2.58,6.05,0,.5-.03.87-.08,1.12l-2.84,23.44h-8.36l2.54-20.46c.1-1.69-.25-3-1.05-3.92-.8-.92-2.09-1.38-3.88-1.38-2.59,0-4.83,1.11-6.72,3.32-1.89,2.21-3.04,5.04-3.43,8.47l-1.72,13.96h-8.36l3.81-31.58h7.54l.07,5.08c1.39-1.99,3.22-3.56,5.49-4.7,2.26-1.14,4.79-1.72,7.58-1.72s5.11.77,6.83,2.31Z"/>
  </g>
  <line class="cls-2" y1="624.52" x2="803.69" y2="624.52"/>
</svg>